<svg xmlns="http://www.w3.org/2000/svg" viewBox="0 0 220 64" role="img" aria-label="روي RAWI">
  <defs>
    <linearGradient id="lgGold" x1="0" y1="0" x2="1" y2="1">
      <stop offset="0" stop-color="#E8C766"/><stop offset="1" stop-color="#B8860B"/>
    </linearGradient>
    <linearGradient id="lgInk" x1="0" y1="0" x2="0" y2="1">
      <stop offset="0" stop-color="#2C6E63"/><stop offset="1" stop-color="#16313B"/>
    </linearGradient>
  </defs>
  <g transform="translate(0,0)">
    <path d="M32 3c14 0 23 9 23 23v23a6 6 0 0 1-6 6H15a6 6 0 0 1-6-6V26C9 12 18 3 32 3Z" fill="url(#lgInk)"/>
    <path d="M41 16 24 41a2 2 0 0 0-.3.8l-1.4 6.6a1 1 0 0 0 1.3 1.1l6.3-2.2a2 2 0 0 0 .8-.6l16.8-24.9a3.4 3.4 0 0 0-.8-4.7l-1.2-.8a3.4 3.4 0 0 0-4.5.7Z" fill="url(#lgGold)"/>
    <path d="M23 52c0-2.2 1.8-4 2.6-4s2.6 1.8 2.6 4a2.6 2.6 0 1 1-5.2 0Z" fill="#E8C766"/>
  </g>
  <!-- wordmark: روي -->
  <text x="76" y="44" font-family="Amiri, 'Times New Roman', serif" font-size="40" font-weight="700"
        fill="currentColor" style="direction:rtl">روي</text>
</svg>
