<svg xmlns="http://www.w3.org/2000/svg" style="display:none" aria-hidden="true">
<!-- ===== روي icon system — 24x24 grid, stroke=currentColor, original ===== -->

<!-- nav -->
<symbol id="i-home" viewBox="0 0 24 24" fill="none" stroke="currentColor" stroke-width="1.8" stroke-linecap="round" stroke-linejoin="round">
  <path d="M3 10.5 12 3l9 7.5"/><path d="M5 9.5V20a1 1 0 0 0 1 1h12a1 1 0 0 0 1-1V9.5"/><path d="M9.5 21v-6h5v6"/>
</symbol>
<symbol id="i-explore" viewBox="0 0 24 24" fill="none" stroke="currentColor" stroke-width="1.8" stroke-linecap="round" stroke-linejoin="round">
  <circle cx="11" cy="11" r="7.5"/><path d="m20.5 20.5-4-4"/>
</symbol>
<symbol id="i-studio" viewBox="0 0 24 24" fill="none" stroke="currentColor" stroke-width="1.8" stroke-linecap="round" stroke-linejoin="round">
  <path d="M12 4v16M4 12h16"/>
</symbol>
<symbol id="i-profile" viewBox="0 0 24 24" fill="none" stroke="currentColor" stroke-width="1.8" stroke-linecap="round" stroke-linejoin="round">
  <circle cx="12" cy="8" r="4"/><path d="M4 21c0-4 3.6-6.5 8-6.5S20 17 20 21"/>
</symbol>

<!-- sections -->
<symbol id="i-encyclopedia" viewBox="0 0 24 24" fill="none" stroke="currentColor" stroke-width="1.8" stroke-linecap="round" stroke-linejoin="round">
  <path d="M4 5.5A2.5 2.5 0 0 1 6.5 3H20v15H6.5A2.5 2.5 0 0 0 4 20.5z"/><path d="M4 20.5A2.5 2.5 0 0 1 6.5 18H20v3H6.5"/><path d="M8 7h7M8 10h5"/>
</symbol>
<symbol id="i-poetry" viewBox="0 0 24 24" fill="none" stroke="currentColor" stroke-width="1.8" stroke-linecap="round" stroke-linejoin="round">
  <path d="M16.5 3.5 7 13l-1 4 4-1 9.5-9.5a2.1 2.1 0 0 0 0-3 2.1 2.1 0 0 0-3 0Z"/><path d="m14.5 5.5 3 3"/><path d="M5 21h9"/>
</symbol>
<symbol id="i-stories" viewBox="0 0 24 24" fill="none" stroke="currentColor" stroke-width="1.8" stroke-linecap="round" stroke-linejoin="round">
  <circle cx="12" cy="12" r="9" stroke-dasharray="2.5 2.5"/><circle cx="12" cy="12" r="4.5"/>
</symbol>
<symbol id="i-diwan" viewBox="0 0 24 24" fill="none" stroke="currentColor" stroke-width="1.8" stroke-linecap="round" stroke-linejoin="round">
  <path d="M4 4h6v16H4zM14 4h6v16h-6z"/><path d="M7 8v8M17 8v8"/>
</symbol>
<symbol id="i-badge" viewBox="0 0 24 24" fill="none" stroke="currentColor" stroke-width="1.8" stroke-linecap="round" stroke-linejoin="round">
  <path d="M12 3 14 6.5 18 7l-2.8 3 .6 4-3.8-1.9L8.2 14l.6-4L6 7l4-.5Z"/><path d="m9 14-1.5 6L12 18l4.5 2L15 14"/>
</symbol>

<!-- interactions -->
<symbol id="i-heart" viewBox="0 0 24 24" fill="none" stroke="currentColor" stroke-width="1.8" stroke-linecap="round" stroke-linejoin="round">
  <path d="M12 20s-7-4.5-9.3-9C1.3 8.2 2.6 5 5.8 5 8 5 9.4 6.4 12 9c2.6-2.6 4-4 6.2-4 3.2 0 4.5 3.2 3.1 6-2.3 4.5-9.3 9-9.3 9Z"/>
</symbol>
<symbol id="i-heart-fill" viewBox="0 0 24 24" fill="currentColor">
  <path d="M12 20.5s-7.3-4.7-9.6-9.3C.9 8 2.4 4.5 5.9 4.5 8.3 4.5 9.7 6 12 8.5c2.3-2.5 3.7-4 6.1-4 3.5 0 5 3.5 3.5 6.7-2.3 4.6-9.6 9.3-9.6 9.3Z"/>
</symbol>
<symbol id="i-comment" viewBox="0 0 24 24" fill="none" stroke="currentColor" stroke-width="1.8" stroke-linecap="round" stroke-linejoin="round">
  <path d="M4 5h16v11H9l-4 3.5V16H4z"/><path d="M8 9h8M8 12h5"/>
</symbol>
<symbol id="i-bookmark" viewBox="0 0 24 24" fill="none" stroke="currentColor" stroke-width="1.8" stroke-linecap="round" stroke-linejoin="round">
  <path d="M6 3.5h12v17l-6-4-6 4z"/>
</symbol>
<symbol id="i-bookmark-fill" viewBox="0 0 24 24" fill="currentColor"><path d="M6 3.5h12v17l-6-4-6 4z"/></symbol>
<symbol id="i-share" viewBox="0 0 24 24" fill="none" stroke="currentColor" stroke-width="1.8" stroke-linecap="round" stroke-linejoin="round">
  <circle cx="6" cy="12" r="2.5"/><circle cx="18" cy="6" r="2.5"/><circle cx="18" cy="18" r="2.5"/><path d="m8.2 10.8 7.6-3.6M8.2 13.2l7.6 3.6"/>
</symbol>
<symbol id="i-view" viewBox="0 0 24 24" fill="none" stroke="currentColor" stroke-width="1.8" stroke-linecap="round" stroke-linejoin="round">
  <path d="M2 12s3.6-7 10-7 10 7 10 7-3.6 7-10 7S2 12 2 12Z"/><circle cx="12" cy="12" r="3"/>
</symbol>

<!-- utility -->
<symbol id="i-settings" viewBox="0 0 24 24" fill="none" stroke="currentColor" stroke-width="1.8" stroke-linecap="round" stroke-linejoin="round">
  <circle cx="12" cy="12" r="3.2"/><path d="M12 2v3M12 19v3M4.2 4.2l2.1 2.1M17.7 17.7l2.1 2.1M2 12h3M19 12h3M4.2 19.8l2.1-2.1M17.7 6.3l2.1-2.1"/>
</symbol>
<symbol id="i-bell" viewBox="0 0 24 24" fill="none" stroke="currentColor" stroke-width="1.8" stroke-linecap="round" stroke-linejoin="round">
  <path d="M6 9a6 6 0 0 1 12 0c0 5 2 6 2 6H4s2-1 2-6Z"/><path d="M10 19a2 2 0 0 0 4 0"/>
</symbol>
<symbol id="i-back" viewBox="0 0 24 24" fill="none" stroke="currentColor" stroke-width="1.8" stroke-linecap="round" stroke-linejoin="round">
  <path d="M14 6l6 6-6 6M20 12H4"/>
</symbol>
<symbol id="i-close" viewBox="0 0 24 24" fill="none" stroke="currentColor" stroke-width="1.8" stroke-linecap="round" stroke-linejoin="round">
  <path d="M6 6l12 12M18 6 6 18"/>
</symbol>
<symbol id="i-sun" viewBox="0 0 24 24" fill="none" stroke="currentColor" stroke-width="1.8" stroke-linecap="round" stroke-linejoin="round">
  <circle cx="12" cy="12" r="4"/><path d="M12 2v2M12 20v2M2 12h2M20 12h2M4.9 4.9l1.4 1.4M17.7 17.7l1.4 1.4M19.1 4.9l-1.4 1.4M6.3 17.7l-1.4 1.4"/>
</symbol>
<symbol id="i-moon" viewBox="0 0 24 24" fill="none" stroke="currentColor" stroke-width="1.8" stroke-linecap="round" stroke-linejoin="round">
  <path d="M20 14.5A8 8 0 1 1 9.5 4 6.5 6.5 0 0 0 20 14.5Z"/>
</symbol>
<symbol id="i-audio" viewBox="0 0 24 24" fill="none" stroke="currentColor" stroke-width="1.8" stroke-linecap="round" stroke-linejoin="round">
  <path d="M4 9v6h3l5 4V5L7 9z"/><path d="M16 8.5a4 4 0 0 1 0 7M18.5 6a7.5 7.5 0 0 1 0 12"/>
</symbol>
<symbol id="i-qr" viewBox="0 0 24 24" fill="none" stroke="currentColor" stroke-width="1.8" stroke-linecap="round" stroke-linejoin="round">
  <rect x="3" y="3" width="7" height="7" rx="1"/><rect x="14" y="3" width="7" height="7" rx="1"/><rect x="3" y="14" width="7" height="7" rx="1"/><path d="M14 14h3v3M21 14v7M17 21h4M17 17v0"/>
</symbol>
<symbol id="i-send" viewBox="0 0 24 24" fill="none" stroke="currentColor" stroke-width="1.8" stroke-linecap="round" stroke-linejoin="round">
  <path d="M21 3 10.5 13.5M21 3l-7 18-4-7.5L2.5 9.5z"/>
</symbol>
<symbol id="i-more" viewBox="0 0 24 24" fill="currentColor">
  <circle cx="5" cy="12" r="1.8"/><circle cx="12" cy="12" r="1.8"/><circle cx="19" cy="12" r="1.8"/>
</symbol>
<symbol id="i-verified" viewBox="0 0 24 24" fill="currentColor">
  <path d="m12 2 2.2 1.6 2.7-.3 1.1 2.5 2.5 1.1-.3 2.7L24 12l-1.6 2.2.3 2.7-2.5 1.1-1.1 2.5-2.7-.3L12 22l-2.2-1.6-2.7.3-1.1-2.5-2.5-1.1.3-2.7L0 12l1.6-2.2-.3-2.7 2.5-1.1L4.9 3.3l2.7.3z" opacity=".18"/>
  <path d="M8 12.2l2.6 2.6L16 9.4" fill="none" stroke="currentColor" stroke-width="2" stroke-linecap="round" stroke-linejoin="round"/>
</symbol>
<symbol id="i-trend" viewBox="0 0 24 24" fill="none" stroke="currentColor" stroke-width="1.8" stroke-linecap="round" stroke-linejoin="round">
  <path d="M13 3c1.5 3-1 4.5-1 7a3 3 0 0 0 6 0c0-1 .4-2 .8-2.6C20.5 9.5 21 12 21 14a9 9 0 1 1-15.6-6.2C7 6 9 4.5 13 3Z"/>
</symbol>
<symbol id="i-edit" viewBox="0 0 24 24" fill="none" stroke="currentColor" stroke-width="1.8" stroke-linecap="round" stroke-linejoin="round">
  <path d="M4 20h4L19 9a2 2 0 0 0-3-3L5 17z"/><path d="m14 7 3 3"/>
</symbol>
<symbol id="i-logout" viewBox="0 0 24 24" fill="none" stroke="currentColor" stroke-width="1.8" stroke-linecap="round" stroke-linejoin="round">
  <path d="M14 7V5a2 2 0 0 0-2-2H6a2 2 0 0 0-2 2v14a2 2 0 0 0 2 2h6a2 2 0 0 0 2-2v-2"/><path d="M18 12H9m9 0-3-3m3 3-3 3"/>
</symbol>
<symbol id="i-globe" viewBox="0 0 24 24" fill="none" stroke="currentColor" stroke-width="1.8" stroke-linecap="round" stroke-linejoin="round">
  <circle cx="12" cy="12" r="9"/><path d="M3 12h18M12 3c2.5 2.5 2.5 15.5 0 18M12 3c-2.5 2.5-2.5 15.5 0 18"/>
</symbol>
<symbol id="i-check" viewBox="0 0 24 24" fill="none" stroke="currentColor" stroke-width="2" stroke-linecap="round" stroke-linejoin="round">
  <path d="m5 12 4.5 4.5L19 7"/>
</symbol>
<symbol id="i-google" viewBox="0 0 24 24">
  <path fill="#4285F4" d="M21.6 12.2c0-.6-.1-1.2-.2-1.8H12v3.5h5.4a4.6 4.6 0 0 1-2 3v2.5h3.2c1.9-1.7 3-4.3 3-7.2Z"/>
  <path fill="#34A853" d="M12 22c2.7 0 5-.9 6.6-2.4l-3.2-2.5c-.9.6-2 1-3.4 1a6 6 0 0 1-5.6-4.1H3.1v2.6A10 10 0 0 0 12 22Z"/>
  <path fill="#FBBC05" d="M6.4 14a6 6 0 0 1 0-3.8V7.6H3.1a10 10 0 0 0 0 8.9Z"/>
  <path fill="#EA4335" d="M12 6.1c1.5 0 2.8.5 3.8 1.5l2.8-2.8A10 10 0 0 0 3.1 7.6L6.4 10.2A6 6 0 0 1 12 6.1Z"/>
</symbol>
<symbol id="i-feather" viewBox="0 0 24 24" fill="none" stroke="currentColor" stroke-width="1.8" stroke-linecap="round" stroke-linejoin="round">
  <path d="M20 4C11 4 5 9 5 17l-1 3 3-1c8 0 13-6 13-15Z"/><path d="M16 8 7 17M11 11h4M9 14h3"/>
</symbol>
</svg>
