<svg xmlns="http://www.w3.org/2000/svg" viewBox="0 0 80 80" width="80" height="80">
  <defs>
    <pattern id="arab" width="40" height="40" patternUnits="userSpaceOnUse" patternTransform="rotate(0)">
      <g fill="none" stroke="currentColor" stroke-width="1" opacity=".5">
        <path d="M20 2c6 6 6 12 0 18-6-6-6-12 0-18ZM20 38c-6-6-6-12 0-18 6 6 6 12 0 18ZM2 20c6-6 12-6 18 0-6 6-12 6-18 0ZM38 20c-6 6-12 6-18 0 6-6 12-6 18 0Z"/>
        <circle cx="20" cy="20" r="3.4"/>
        <circle cx="0" cy="0" r="2"/><circle cx="40" cy="0" r="2"/><circle cx="0" cy="40" r="2"/><circle cx="40" cy="40" r="2"/>
      </g>
    </pattern>
  </defs>
  <rect width="80" height="80" fill="url(#arab)"/>
</svg>
